<svg xmlns="http://www.w3.org/2000/svg" xmlns:xlink="http://www.w3.org/1999/xlink" width="500" zoomAndPan="magnify" viewBox="0 0 375 374.999991" height="500" preserveAspectRatio="xMidYMid meet" version="1.0"><defs><clipPath id="ae423d9f2a"><path d="M 139.539062 194.34375 L 189.800781 194.34375 L 189.800781 280.484375 L 139.539062 280.484375 Z M 139.539062 194.34375 " clip-rule="nonzero"/></clipPath><clipPath id="303ec440c0"><path d="M 164.671875 194.34375 L 189.800781 237.414062 L 164.671875 280.484375 L 139.539062 237.414062 L 164.671875 194.34375 " clip-rule="nonzero"/></clipPath><clipPath id="f28cb707ee"><path d="M 213.265625 157.105469 L 231 157.105469 L 231 163.535156 L 213.265625 163.535156 Z M 213.265625 157.105469 " clip-rule="nonzero"/></clipPath><clipPath id="2c6e0bbdd4"><path d="M 216 157.125 C 230.550781 159.601562 230.851562 160.199219 230.925781 160.726562 C 231 161.175781 230.925781 161.625 230.625 162 C 230.25 162.449219 228.898438 163.050781 228.300781 162.976562 C 227.851562 162.976562 227.398438 162.675781 227.175781 162.300781 C 226.875 161.851562 226.726562 160.875 226.875 160.351562 C 226.949219 159.898438 227.25 159.523438 227.625 159.300781 C 228.074219 159 229.050781 158.851562 229.574219 159 C 230.023438 159.148438 230.398438 159.449219 230.625 159.898438 C 230.851562 160.425781 231.074219 161.324219 230.773438 161.851562 C 230.476562 162.449219 229.648438 162.824219 228.523438 163.050781 C 225.976562 163.5 217.351562 162.148438 215.25 161.476562 C 214.5 161.25 214.199219 161.101562 213.898438 160.726562 C 213.601562 160.273438 213.300781 159.300781 213.523438 158.699219 C 213.824219 158.023438 216 157.125 216 157.125 " clip-rule="nonzero"/></clipPath><clipPath id="a6ded7e790"><path d="M 223.863281 143.4375 L 231.566406 143.4375 L 231.566406 163.359375 L 223.863281 163.359375 Z M 223.863281 143.4375 " clip-rule="nonzero"/></clipPath><clipPath id="7332579174"><path d="M 226.726562 161.398438 C 224.398438 144.375 225.300781 143.550781 225.976562 143.550781 C 226.648438 143.550781 227.925781 144.601562 228.074219 145.273438 C 228.226562 145.875 227.699219 147 227.175781 147.300781 C 226.574219 147.601562 225.226562 147.449219 224.699219 147.074219 C 224.25 146.699219 223.875 145.800781 224.023438 145.273438 C 224.175781 144.675781 225.148438 143.625 225.824219 143.550781 C 226.5 143.476562 227.699219 144.226562 228 144.824219 C 228.226562 145.351562 228.074219 146.25 227.773438 146.699219 C 227.476562 147.148438 226.726562 147.75 226.125 147.675781 C 225.449219 147.601562 224.101562 146.625 224.023438 145.949219 C 223.949219 145.273438 224.851562 143.773438 225.523438 143.625 C 226.199219 143.476562 227.324219 143.925781 228 144.824219 C 229.726562 147.074219 231.523438 157.648438 231 160.574219 C 230.773438 161.851562 230.175781 162.75 229.5 163.050781 C 228.976562 163.273438 228 163.050781 227.550781 162.75 C 227.101562 162.449219 226.726562 161.398438 226.726562 161.398438 " clip-rule="nonzero"/></clipPath><clipPath id="7349165c2d"><path d="M 247.890625 155.386719 L 276.6875 155.386719 L 276.6875 223.667969 L 247.890625 223.667969 Z M 247.890625 155.386719 " clip-rule="nonzero"/></clipPath><clipPath id="752499af35"><path d="M 51.757812 95.203125 L 103.742188 95.203125 L 103.742188 137.257812 L 51.757812 137.257812 Z M 51.757812 95.203125 " clip-rule="nonzero"/></clipPath><clipPath id="b467da56a8"><path d="M 103.742188 95.203125 L 195.949219 95.203125 L 195.949219 137.257812 L 103.742188 137.257812 Z M 103.742188 95.203125 " clip-rule="nonzero"/></clipPath><clipPath id="a8514efacd"><path d="M 139.539062 194.34375 L 189.800781 194.34375 L 189.800781 280.484375 L 139.539062 280.484375 Z M 139.539062 194.34375 " clip-rule="nonzero"/></clipPath><clipPath id="ae47cdbf22"><path d="M 164.671875 194.34375 L 189.800781 237.414062 L 164.671875 280.484375 L 139.539062 237.414062 L 164.671875 194.34375 " clip-rule="nonzero"/></clipPath><clipPath id="5fce19b764"><path d="M 134.894531 238.425781 L 164.671875 238.425781 L 164.671875 280.484375 L 134.894531 280.484375 Z M 134.894531 238.425781 " clip-rule="nonzero"/></clipPath><clipPath id="9eef0bb174"><path d="M 103.738281 137.257812 L 145.871094 137.257812 L 145.871094 280.3125 L 103.738281 280.3125 Z M 103.738281 137.257812 " clip-rule="nonzero"/></clipPath><clipPath id="0268a0d892"><path d="M 197.378906 95.203125 L 247.894531 95.203125 L 247.894531 181.691406 L 197.378906 181.691406 Z M 197.378906 95.203125 " clip-rule="nonzero"/></clipPath><clipPath id="c1bab64920"><path d="M 222.636719 95.203125 L 247.894531 138.445312 L 222.636719 181.691406 L 197.378906 138.445312 L 222.636719 95.203125 " clip-rule="nonzero"/></clipPath><clipPath id="e565de3ab2"><path d="M 222.851562 137.945312 L 272.941406 137.945312 L 272.941406 224.140625 L 222.851562 224.140625 Z M 222.851562 137.945312 " clip-rule="nonzero"/></clipPath><clipPath id="af89f27b23"><path d="M 247.894531 137.945312 L 272.941406 181.042969 L 247.894531 224.140625 L 222.851562 181.042969 L 247.894531 137.945312 " clip-rule="nonzero"/></clipPath><clipPath id="451bc43dbb"><path d="M 252 211 L 331 211 L 331 281 L 252 281 Z M 252 211 " clip-rule="nonzero"/></clipPath><clipPath id="2e13c582be"><path d="M 290.816406 211.949219 L 330.964844 280.8125 L 273.019531 314.597656 L 232.871094 245.734375 Z M 290.816406 211.949219 " clip-rule="nonzero"/></clipPath><clipPath id="7d73bd881b"><path d="M 252.945312 280.164062 L 330.964844 280.8125 L 290.816406 211.949219 L 252.945312 280.164062 " clip-rule="nonzero"/></clipPath><clipPath id="96ba220f2f"><path d="M 213.300781 237.414062 L 280.007812 237.414062 L 280.007812 280.3125 L 213.300781 280.3125 Z M 213.300781 237.414062 " clip-rule="nonzero"/></clipPath><clipPath id="17c7bea76b"><path d="M 247.8125 181.691406 L 298.074219 181.691406 L 298.074219 266.585938 L 247.8125 266.585938 Z M 247.8125 181.691406 " clip-rule="nonzero"/></clipPath><clipPath id="443dcef489"><path d="M 272.941406 181.691406 L 298.074219 224.140625 L 272.941406 266.585938 L 247.8125 224.140625 L 272.941406 181.691406 " clip-rule="nonzero"/></clipPath><clipPath id="a6f2d8241b"><path d="M 255.523438 194.171875 L 305.335938 194.171875 L 305.335938 280.484375 L 255.523438 280.484375 Z M 255.523438 194.171875 " clip-rule="nonzero"/></clipPath><clipPath id="f7b1f40f6d"><path d="M 280.429688 194.171875 L 305.335938 237.328125 L 280.429688 280.484375 L 255.523438 237.328125 L 280.429688 194.171875 " clip-rule="nonzero"/></clipPath><clipPath id="0cab67c33c"><path d="M 275.785156 122.035156 L 309.226562 122.035156 L 309.226562 154.800781 L 275.785156 154.800781 Z M 275.785156 122.035156 " clip-rule="nonzero"/></clipPath><clipPath id="65804641af"><path d="M 252.714844 99.269531 L 275.785156 99.269531 L 275.785156 122.324219 L 252.714844 122.324219 Z M 252.714844 99.269531 " clip-rule="nonzero"/></clipPath><clipPath id="fdc2c980fe"><path d="M 171.90625 137.945312 L 222.851562 137.945312 L 222.851562 224.964844 L 171.90625 224.964844 Z M 171.90625 137.945312 " clip-rule="nonzero"/></clipPath><clipPath id="fac1addbb4"><path d="M 197.378906 137.945312 L 222.851562 181.457031 L 197.378906 224.964844 L 171.90625 181.457031 L 197.378906 137.945312 " clip-rule="nonzero"/></clipPath><clipPath id="44149466b1"><path d="M 147.289062 180.742188 L 197.886719 180.742188 L 197.886719 266.585938 L 147.289062 266.585938 Z M 147.289062 180.742188 " clip-rule="nonzero"/></clipPath><clipPath id="b9ed3f666b"><path d="M 172.585938 180.742188 L 197.886719 223.664062 L 172.585938 266.585938 L 147.289062 223.664062 L 172.585938 180.742188 " clip-rule="nonzero"/></clipPath></defs><g clip-path="url(#ae423d9f2a)"><g clip-path="url(#303ec440c0)"><path fill="#48d0cc" d="M 139.539062 194.34375 L 189.800781 194.34375 L 189.800781 280.484375 L 139.539062 280.484375 Z M 139.539062 194.34375 " fill-opacity="1" fill-rule="nonzero"/></g></g><g clip-path="url(#f28cb707ee)"><g clip-path="url(#2c6e0bbdd4)"><path fill="#bae6fd" d="M 210.523438 154.125 L 233.925781 154.125 L 233.925781 166.050781 L 210.523438 166.050781 Z M 210.523438 154.125 " fill-opacity="1" fill-rule="nonzero"/></g></g><g clip-path="url(#a6ded7e790)"><g clip-path="url(#7332579174)"><path fill="#bae6fd" d="M 221.023438 140.550781 L 234 140.550781 L 234 166.050781 L 221.023438 166.050781 Z M 221.023438 140.550781 " fill-opacity="1" fill-rule="nonzero"/></g></g><g clip-path="url(#7349165c2d)"><path fill="#19196f" d="M 276.6875 155.386719 L 276.6875 223.667969 L 247.890625 223.667969 L 247.890625 155.386719 Z M 276.6875 155.386719 " fill-opacity="1" fill-rule="nonzero"/></g><g clip-path="url(#752499af35)"><path fill="#48d0cc" d="M 51.757812 95.203125 L 103.742188 95.203125 L 103.742188 137.257812 L 51.757812 137.257812 Z M 51.757812 95.203125 " fill-opacity="1" fill-rule="nonzero"/></g><g clip-path="url(#b467da56a8)"><path fill="#4682b4" d="M 103.742188 95.203125 L 195.949219 95.203125 L 195.949219 137.257812 L 103.742188 137.257812 Z M 103.742188 95.203125 " fill-opacity="1" fill-rule="nonzero"/></g><g clip-path="url(#a8514efacd)"><g clip-path="url(#ae47cdbf22)"><path fill="#48d0cc" d="M 139.539062 194.34375 L 189.800781 194.34375 L 189.800781 280.484375 L 139.539062 280.484375 Z M 139.539062 194.34375 " fill-opacity="1" fill-rule="nonzero"/></g></g><g clip-path="url(#5fce19b764)"><path fill="#48d0cc" d="M 134.894531 238.425781 L 164.671875 238.425781 L 164.671875 280.484375 L 134.894531 280.484375 Z M 134.894531 238.425781 " fill-opacity="1" fill-rule="nonzero"/></g><g clip-path="url(#9eef0bb174)"><path fill="#19196f" d="M 145.871094 137.257812 L 145.871094 280.3125 L 103.738281 280.3125 L 103.738281 137.257812 Z M 145.871094 137.257812 " fill-opacity="1" fill-rule="nonzero"/></g><g clip-path="url(#0268a0d892)"><g clip-path="url(#c1bab64920)"><path fill="#19196f" d="M 197.378906 95.203125 L 247.894531 95.203125 L 247.894531 181.691406 L 197.378906 181.691406 Z M 197.378906 95.203125 " fill-opacity="1" fill-rule="nonzero"/></g></g><g clip-path="url(#e565de3ab2)"><g clip-path="url(#af89f27b23)"><path fill="#a5d9ef" d="M 222.851562 137.945312 L 272.941406 137.945312 L 272.941406 224.140625 L 222.851562 224.140625 Z M 222.851562 137.945312 " fill-opacity="1" fill-rule="nonzero"/></g></g><g clip-path="url(#451bc43dbb)"><g clip-path="url(#2e13c582be)"><g clip-path="url(#7d73bd881b)"><path fill="#19196f" d="M 290.816406 211.949219 L 330.964844 280.8125 L 273.019531 314.597656 L 232.871094 245.734375 Z M 290.816406 211.949219 " fill-opacity="1" fill-rule="nonzero"/></g></g></g><g clip-path="url(#96ba220f2f)"><path fill="#4682b4" d="M 213.300781 237.414062 L 280.007812 237.414062 L 280.007812 280.3125 L 213.300781 280.3125 Z M 213.300781 237.414062 " fill-opacity="1" fill-rule="nonzero"/></g><g clip-path="url(#17c7bea76b)"><g clip-path="url(#443dcef489)"><path fill="#19196f" d="M 247.8125 181.691406 L 298.074219 181.691406 L 298.074219 266.585938 L 247.8125 266.585938 Z M 247.8125 181.691406 " fill-opacity="1" fill-rule="nonzero"/></g></g><g clip-path="url(#a6f2d8241b)"><g clip-path="url(#f7b1f40f6d)"><path fill="#19196f" d="M 255.523438 194.171875 L 305.335938 194.171875 L 305.335938 280.484375 L 255.523438 280.484375 Z M 255.523438 194.171875 " fill-opacity="1" fill-rule="nonzero"/></g></g><g clip-path="url(#0cab67c33c)"><path fill="#4682b4" d="M 275.785156 122.035156 L 309.226562 122.035156 L 309.226562 154.800781 L 275.785156 154.800781 Z M 275.785156 122.035156 " fill-opacity="1" fill-rule="nonzero"/></g><g clip-path="url(#65804641af)"><path fill="#48d0cc" d="M 252.714844 99.269531 L 275.785156 99.269531 L 275.785156 122.324219 L 252.714844 122.324219 Z M 252.714844 99.269531 " fill-opacity="1" fill-rule="nonzero"/></g><g clip-path="url(#fdc2c980fe)"><g clip-path="url(#fac1addbb4)"><path fill="#48d0cc" d="M 171.90625 137.945312 L 222.851562 137.945312 L 222.851562 224.964844 L 171.90625 224.964844 Z M 171.90625 137.945312 " fill-opacity="1" fill-rule="nonzero"/></g></g><g clip-path="url(#44149466b1)"><g clip-path="url(#b9ed3f666b)"><path fill="#48d0cc" d="M 147.289062 180.742188 L 197.886719 180.742188 L 197.886719 266.585938 L 147.289062 266.585938 Z M 147.289062 180.742188 " fill-opacity="1" fill-rule="nonzero"/></g></g></svg>