<svg xmlns="http://www.w3.org/2000/svg" xmlns:xlink="http://www.w3.org/1999/xlink" width="500" zoomAndPan="magnify" viewBox="0 0 375 374.999991" height="500" preserveAspectRatio="xMidYMid meet" version="1.0"><defs><clipPath id="2ca63e705b"><path d="M 117.894531 173.320312 L 185.402344 173.320312 L 185.402344 289.011719 L 117.894531 289.011719 Z M 117.894531 173.320312 " clip-rule="nonzero"/></clipPath><clipPath id="d78dc29112"><path d="M 151.648438 173.320312 L 185.402344 231.167969 L 151.648438 289.011719 L 117.894531 231.167969 L 151.648438 173.320312 " clip-rule="nonzero"/></clipPath><clipPath id="6fb717a7de"><path d="M 217 123.308594 L 240.855469 123.308594 L 240.855469 131.945312 L 217 131.945312 Z M 217 123.308594 " clip-rule="nonzero"/></clipPath><clipPath id="8cf9c3f39c"><path d="M 220.585938 123.335938 C 240.128906 126.660156 240.53125 127.464844 240.632812 128.171875 C 240.734375 128.773438 240.632812 129.378906 240.230469 129.882812 C 239.726562 130.488281 237.914062 131.292969 237.105469 131.191406 C 236.503906 131.191406 235.898438 130.789062 235.59375 130.285156 C 235.191406 129.679688 234.992188 128.371094 235.191406 127.667969 C 235.292969 127.0625 235.695312 126.558594 236.199219 126.257812 C 236.804688 125.855469 238.113281 125.652344 238.820312 125.855469 C 239.421875 126.054688 239.925781 126.457031 240.230469 127.0625 C 240.53125 127.769531 240.832031 128.976562 240.429688 129.679688 C 240.027344 130.488281 238.917969 130.992188 237.410156 131.292969 C 233.984375 131.898438 222.398438 130.085938 219.578125 129.179688 C 218.574219 128.875 218.167969 128.675781 217.765625 128.171875 C 217.363281 127.566406 216.960938 126.257812 217.261719 125.449219 C 217.664062 124.542969 220.585938 123.335938 220.585938 123.335938 " clip-rule="nonzero"/></clipPath><clipPath id="c8025c7dfb"><path d="M 231.148438 105 L 241 105 L 241 131.710938 L 231.148438 131.710938 Z M 231.148438 105 " clip-rule="nonzero"/></clipPath><clipPath id="8af012f63f"><path d="M 234.992188 129.078125 C 231.867188 106.210938 233.078125 105.105469 233.984375 105.105469 C 234.890625 105.105469 236.601562 106.515625 236.804688 107.421875 C 237.003906 108.226562 236.300781 109.738281 235.59375 110.140625 C 234.789062 110.542969 232.976562 110.339844 232.273438 109.835938 C 231.667969 109.335938 231.164062 108.125 231.363281 107.421875 C 231.566406 106.613281 232.875 105.203125 233.78125 105.105469 C 234.6875 105.003906 236.300781 106.011719 236.703125 106.816406 C 237.003906 107.519531 236.804688 108.730469 236.402344 109.335938 C 236 109.9375 234.992188 110.746094 234.183594 110.644531 C 233.277344 110.542969 231.464844 109.234375 231.363281 108.328125 C 231.265625 107.421875 232.472656 105.40625 233.378906 105.203125 C 234.285156 105.003906 235.796875 105.605469 236.703125 106.816406 C 239.019531 109.835938 241.4375 124.039062 240.734375 127.96875 C 240.429688 129.679688 239.625 130.890625 238.71875 131.292969 C 238.011719 131.59375 236.703125 131.292969 236.097656 130.890625 C 235.496094 130.488281 234.992188 129.078125 234.992188 129.078125 " clip-rule="nonzero"/></clipPath><clipPath id="bed2e2c9a0"><path d="M 263.421875 121 L 302.097656 121 L 302.097656 212.703125 L 263.421875 212.703125 Z M 263.421875 121 " clip-rule="nonzero"/></clipPath><clipPath id="099131ba77"><path d="M 0 40.167969 L 69.816406 40.167969 L 69.816406 96.652344 L 0 96.652344 Z M 0 40.167969 " clip-rule="nonzero"/></clipPath><clipPath id="07004754cd"><path d="M 69.816406 40.167969 L 193.660156 40.167969 L 193.660156 96.652344 L 69.816406 96.652344 Z M 69.816406 40.167969 " clip-rule="nonzero"/></clipPath><clipPath id="39f96d70a3"><path d="M 117.894531 173.320312 L 185.402344 173.320312 L 185.402344 289.011719 L 117.894531 289.011719 Z M 117.894531 173.320312 " clip-rule="nonzero"/></clipPath><clipPath id="f91fe7008c"><path d="M 151.648438 173.320312 L 185.402344 231.167969 L 151.648438 289.011719 L 117.894531 231.167969 L 151.648438 173.320312 " clip-rule="nonzero"/></clipPath><clipPath id="a859a21b03"><path d="M 111.65625 232.527344 L 151.648438 232.527344 L 151.648438 289.011719 L 111.65625 289.011719 Z M 111.65625 232.527344 " clip-rule="nonzero"/></clipPath><clipPath id="47dad8c9eb"><path d="M 69.8125 96.652344 L 126.398438 96.652344 L 126.398438 288.78125 L 69.8125 288.78125 Z M 69.8125 96.652344 " clip-rule="nonzero"/></clipPath><clipPath id="6f9d5a7e28"><path d="M 195.574219 40.167969 L 263.425781 40.167969 L 263.425781 156.328125 L 195.574219 156.328125 Z M 195.574219 40.167969 " clip-rule="nonzero"/></clipPath><clipPath id="6eea8b085d"><path d="M 229.5 40.167969 L 263.425781 98.25 L 229.5 156.328125 L 195.574219 98.25 L 229.5 40.167969 " clip-rule="nonzero"/></clipPath><clipPath id="cfc17986f5"><path d="M 229.785156 97.578125 L 297.066406 97.578125 L 297.066406 213.339844 L 229.785156 213.339844 Z M 229.785156 97.578125 " clip-rule="nonzero"/></clipPath><clipPath id="8b6309e6bc"><path d="M 263.425781 97.578125 L 297.066406 155.457031 L 263.425781 213.339844 L 229.785156 155.457031 L 263.425781 97.578125 " clip-rule="nonzero"/></clipPath><clipPath id="ee8874f13d"><path d="M 270 196 L 375 196 L 375 290 L 270 290 Z M 270 196 " clip-rule="nonzero"/></clipPath><clipPath id="ac598a8eb4"><path d="M 321.074219 196.972656 L 374.996094 289.457031 L 297.167969 334.832031 L 243.246094 242.347656 Z M 321.074219 196.972656 " clip-rule="nonzero"/></clipPath><clipPath id="6ba452dcb8"><path d="M 270.207031 288.589844 L 374.996094 289.457031 L 321.074219 196.972656 L 270.207031 288.589844 " clip-rule="nonzero"/></clipPath><clipPath id="fd08942d62"><path d="M 216.960938 231.167969 L 306.550781 231.167969 L 306.550781 288.785156 L 216.960938 288.785156 Z M 216.960938 231.167969 " clip-rule="nonzero"/></clipPath><clipPath id="b081304c9c"><path d="M 263.3125 156.328125 L 330.816406 156.328125 L 330.816406 270.351562 L 263.3125 270.351562 Z M 263.3125 156.328125 " clip-rule="nonzero"/></clipPath><clipPath id="ecfee2a76d"><path d="M 297.066406 156.328125 L 330.816406 213.339844 L 297.066406 270.351562 L 263.3125 213.339844 L 297.066406 156.328125 " clip-rule="nonzero"/></clipPath><clipPath id="509db455e1"><path d="M 273.671875 173.09375 L 340.570312 173.09375 L 340.570312 289.011719 L 273.671875 289.011719 Z M 273.671875 173.09375 " clip-rule="nonzero"/></clipPath><clipPath id="6ac6f20878"><path d="M 307.121094 173.09375 L 340.570312 231.054688 L 307.121094 289.011719 L 273.671875 231.054688 L 307.121094 173.09375 " clip-rule="nonzero"/></clipPath><clipPath id="7189f31d10"><path d="M 300.882812 76.207031 L 345.792969 76.207031 L 345.792969 120.214844 L 300.882812 120.214844 Z M 300.882812 76.207031 " clip-rule="nonzero"/></clipPath><clipPath id="c3febb8ff6"><path d="M 269.898438 45.632812 L 300.882812 45.632812 L 300.882812 76.597656 L 269.898438 76.597656 Z M 269.898438 45.632812 " clip-rule="nonzero"/></clipPath><clipPath id="c39a22b049"><path d="M 161.367188 97.578125 L 229.785156 97.578125 L 229.785156 214.449219 L 161.367188 214.449219 Z M 161.367188 97.578125 " clip-rule="nonzero"/></clipPath><clipPath id="33abf2b6d3"><path d="M 195.574219 97.578125 L 229.785156 156.011719 L 195.574219 214.449219 L 161.367188 156.011719 L 195.574219 97.578125 " clip-rule="nonzero"/></clipPath><clipPath id="7030fe8e43"><path d="M 128.300781 155.054688 L 196.261719 155.054688 L 196.261719 270.351562 L 128.300781 270.351562 Z M 128.300781 155.054688 " clip-rule="nonzero"/></clipPath><clipPath id="4f8343de9d"><path d="M 162.28125 155.054688 L 196.261719 212.703125 L 162.28125 270.351562 L 128.300781 212.703125 L 162.28125 155.054688 " clip-rule="nonzero"/></clipPath></defs><g clip-path="url(#2ca63e705b)"><g clip-path="url(#d78dc29112)"><path fill="#48d0cc" d="M 117.894531 173.320312 L 185.402344 173.320312 L 185.402344 289.011719 L 117.894531 289.011719 Z M 117.894531 173.320312 " fill-opacity="1" fill-rule="nonzero"/></g></g><g clip-path="url(#6fb717a7de)"><g clip-path="url(#8cf9c3f39c)"><path fill="#bae6fd" d="M 213.234375 119.304688 L 244.660156 119.304688 L 244.660156 135.324219 L 213.234375 135.324219 Z M 213.234375 119.304688 " fill-opacity="1" fill-rule="nonzero"/></g></g><g clip-path="url(#c8025c7dfb)"><g clip-path="url(#8af012f63f)"><path fill="#bae6fd" d="M 227.335938 101.074219 L 244.761719 101.074219 L 244.761719 135.324219 L 227.335938 135.324219 Z M 227.335938 101.074219 " fill-opacity="1" fill-rule="nonzero"/></g></g><g clip-path="url(#bed2e2c9a0)"><path fill="#19196f" d="M 302.097656 121 L 302.097656 212.703125 L 263.421875 212.703125 L 263.421875 121 Z M 302.097656 121 " fill-opacity="1" fill-rule="nonzero"/></g><g clip-path="url(#099131ba77)"><path fill="#48d0cc" d="M 0 40.167969 L 69.816406 40.167969 L 69.816406 96.652344 L 0 96.652344 Z M 0 40.167969 " fill-opacity="1" fill-rule="nonzero"/></g><g clip-path="url(#07004754cd)"><path fill="#4682b4" d="M 69.816406 40.167969 L 193.660156 40.167969 L 193.660156 96.652344 L 69.816406 96.652344 Z M 69.816406 40.167969 " fill-opacity="1" fill-rule="nonzero"/></g><g clip-path="url(#39f96d70a3)"><g clip-path="url(#f91fe7008c)"><path fill="#48d0cc" d="M 117.894531 173.320312 L 185.402344 173.320312 L 185.402344 289.011719 L 117.894531 289.011719 Z M 117.894531 173.320312 " fill-opacity="1" fill-rule="nonzero"/></g></g><g clip-path="url(#a859a21b03)"><path fill="#48d0cc" d="M 111.65625 232.527344 L 151.648438 232.527344 L 151.648438 289.011719 L 111.65625 289.011719 Z M 111.65625 232.527344 " fill-opacity="1" fill-rule="nonzero"/></g><g clip-path="url(#47dad8c9eb)"><path fill="#19196f" d="M 126.398438 96.652344 L 126.398438 288.78125 L 69.8125 288.78125 L 69.8125 96.652344 Z M 126.398438 96.652344 " fill-opacity="1" fill-rule="nonzero"/></g><g clip-path="url(#6f9d5a7e28)"><g clip-path="url(#6eea8b085d)"><path fill="#19196f" d="M 195.574219 40.167969 L 263.425781 40.167969 L 263.425781 156.328125 L 195.574219 156.328125 Z M 195.574219 40.167969 " fill-opacity="1" fill-rule="nonzero"/></g></g><g clip-path="url(#cfc17986f5)"><g clip-path="url(#8b6309e6bc)"><path fill="#5be6ff" d="M 229.785156 97.578125 L 297.066406 97.578125 L 297.066406 213.339844 L 229.785156 213.339844 Z M 229.785156 97.578125 " fill-opacity="1" fill-rule="nonzero"/></g></g><g clip-path="url(#ee8874f13d)"><g clip-path="url(#ac598a8eb4)"><g clip-path="url(#6ba452dcb8)"><path fill="#19196f" d="M 321.074219 196.972656 L 374.996094 289.457031 L 297.167969 334.832031 L 243.246094 242.347656 Z M 321.074219 196.972656 " fill-opacity="1" fill-rule="nonzero"/></g></g></g><g clip-path="url(#fd08942d62)"><path fill="#4682b4" d="M 216.960938 231.167969 L 306.550781 231.167969 L 306.550781 288.785156 L 216.960938 288.785156 Z M 216.960938 231.167969 " fill-opacity="1" fill-rule="nonzero"/></g><g clip-path="url(#b081304c9c)"><g clip-path="url(#ecfee2a76d)"><path fill="#19196f" d="M 263.3125 156.328125 L 330.816406 156.328125 L 330.816406 270.351562 L 263.3125 270.351562 Z M 263.3125 156.328125 " fill-opacity="1" fill-rule="nonzero"/></g></g><g clip-path="url(#509db455e1)"><g clip-path="url(#6ac6f20878)"><path fill="#19196f" d="M 273.671875 173.09375 L 340.570312 173.09375 L 340.570312 289.011719 L 273.671875 289.011719 Z M 273.671875 173.09375 " fill-opacity="1" fill-rule="nonzero"/></g></g><g clip-path="url(#7189f31d10)"><path fill="#4682b4" d="M 300.882812 76.207031 L 345.792969 76.207031 L 345.792969 120.214844 L 300.882812 120.214844 Z M 300.882812 76.207031 " fill-opacity="1" fill-rule="nonzero"/></g><g clip-path="url(#c3febb8ff6)"><path fill="#48d0cc" d="M 269.898438 45.632812 L 300.882812 45.632812 L 300.882812 76.597656 L 269.898438 76.597656 Z M 269.898438 45.632812 " fill-opacity="1" fill-rule="nonzero"/></g><g clip-path="url(#c39a22b049)"><g clip-path="url(#33abf2b6d3)"><path fill="#48d0cc" d="M 161.367188 97.578125 L 229.785156 97.578125 L 229.785156 214.449219 L 161.367188 214.449219 Z M 161.367188 97.578125 " fill-opacity="1" fill-rule="nonzero"/></g></g><g clip-path="url(#7030fe8e43)"><g clip-path="url(#4f8343de9d)"><path fill="#48d0cc" d="M 128.300781 155.054688 L 196.261719 155.054688 L 196.261719 270.351562 L 128.300781 270.351562 Z M 128.300781 155.054688 " fill-opacity="1" fill-rule="nonzero"/></g></g></svg>